<?xml version="1.0" encoding="UTF-8" standalone="no"?>
<!DOCTYPE svg PUBLIC "-//W3C//DTD SVG 1.1//EN"
 "http://www.w3.org/Graphics/SVG/1.1/DTD/svg11.dtd">
<!-- Generated by graphviz version 2.47.3 (20210619.1520)
 -->
<!-- Title: dependencies Pages: 1 -->
<svg width="302pt" height="174pt"
 viewBox="0.00 0.00 302.00 173.80" xmlns="http://www.w3.org/2000/svg" xmlns:xlink="http://www.w3.org/1999/xlink">
<g id="graph0" class="graph" transform="scale(1 1) rotate(0) translate(4 169.8)">
<title>dependencies</title>
<polygon fill="white" stroke="transparent" points="-4,4 -4,-169.8 298,-169.8 298,4 -4,4"/>
<text text-anchor="middle" x="147" y="-8.2" font-family="sans-serif" font-size="14.00">dependencies</text>
<g id="clust1" class="cluster">
<title>cluster_UserModule</title>
<polygon fill="none" stroke="black" stroke-dasharray="1,5" points="8,-32.8 8,-157.8 286,-157.8 286,-32.8 8,-32.8"/>
</g>
<g id="clust3" class="cluster">
<title>cluster_UserModule_imports</title>
<polygon fill="none" stroke="black" points="156,-40.8 156,-92.8 278,-92.8 278,-40.8 156,-40.8"/>
</g>
<g id="clust6" class="cluster">
<title>cluster_UserModule_providers</title>
<polygon fill="none" stroke="black" points="16,-40.8 16,-92.8 148,-92.8 148,-40.8 16,-40.8"/>
</g>
<!-- JwtAuthModule -->
<g id="node1" class="node">
<title>JwtAuthModule</title>
<polygon fill="#8dd3c7" stroke="black" points="270.49,-84.8 267.49,-88.8 246.49,-88.8 243.49,-84.8 163.51,-84.8 163.51,-48.8 270.49,-48.8 270.49,-84.8"/>
<text text-anchor="middle" x="217" y="-62.6" font-family="Times,serif" font-size="14.00">JwtAuthModule</text>
</g>
<!-- UserModule -->
<g id="node2" class="node">
<title>UserModule</title>
<polygon fill="#8dd3c7" stroke="black" points="191.98,-149.8 188.98,-153.8 167.98,-153.8 164.98,-149.8 106.02,-149.8 106.02,-113.8 191.98,-113.8 191.98,-149.8"/>
<text text-anchor="middle" x="149" y="-127.6" font-family="Times,serif" font-size="14.00">UserModule</text>
</g>
<!-- JwtAuthModule&#45;&gt;UserModule -->
<g id="edge1" class="edge">
<title>JwtAuthModule&#45;&gt;UserModule</title>
<path fill="none" stroke="black" d="M177.75,-84.91C177.75,-84.91 177.75,-103.79 177.75,-103.79"/>
<polygon fill="black" stroke="black" points="174.25,-103.79 177.75,-113.79 181.25,-103.79 174.25,-103.79"/>
</g>
<!-- UserService -->
<g id="node3" class="node">
<title>UserService</title>
<ellipse fill="#fdb462" stroke="black" cx="82" cy="-66.8" rx="58.44" ry="18"/>
<text text-anchor="middle" x="82" y="-62.6" font-family="Times,serif" font-size="14.00">UserService</text>
</g>
<!-- UserService&#45;&gt;UserModule -->
<g id="edge2" class="edge">
<title>UserService&#45;&gt;UserModule</title>
<path fill="none" stroke="black" d="M123.12,-79.64C123.12,-79.64 123.12,-103.32 123.12,-103.32"/>
<polygon fill="black" stroke="black" points="119.62,-103.32 123.12,-113.32 126.62,-103.32 119.62,-103.32"/>
</g>
</g>
</svg>
