<?xml version="1.0" encoding="UTF-8" standalone="no"?>
<!DOCTYPE svg PUBLIC "-//W3C//DTD SVG 1.1//EN"
 "http://www.w3.org/Graphics/SVG/1.1/DTD/svg11.dtd">
<!-- Generated by graphviz version 2.47.3 (20210619.1520)
 -->
<!-- Title: dependencies Pages: 1 -->
<svg width="388pt" height="174pt"
 viewBox="0.00 0.00 388.00 173.80" xmlns="http://www.w3.org/2000/svg" xmlns:xlink="http://www.w3.org/1999/xlink">
<g id="graph0" class="graph" transform="scale(1 1) rotate(0) translate(4 169.8)">
<title>dependencies</title>
<polygon fill="white" stroke="transparent" points="-4,4 -4,-169.8 384,-169.8 384,4 -4,4"/>
<text text-anchor="middle" x="190" y="-8.2" font-family="sans-serif" font-size="14.00">dependencies</text>
<g id="clust1" class="cluster">
<title>cluster_AppModule</title>
<polygon fill="none" stroke="black" stroke-dasharray="1,5" points="8,-32.8 8,-157.8 372,-157.8 372,-32.8 8,-32.8"/>
</g>
<g id="clust3" class="cluster">
<title>cluster_AppModule_imports</title>
<polygon fill="none" stroke="black" points="16,-40.8 16,-92.8 364,-92.8 364,-40.8 16,-40.8"/>
</g>
<!-- GoodsModule -->
<g id="node1" class="node">
<title>GoodsModule</title>
<polygon fill="#8dd3c7" stroke="black" points="356.1,-84.8 353.1,-88.8 332.1,-88.8 329.1,-84.8 259.9,-84.8 259.9,-48.8 356.1,-48.8 356.1,-84.8"/>
<text text-anchor="middle" x="308" y="-62.6" font-family="Times,serif" font-size="14.00">GoodsModule</text>
</g>
<!-- AppModule -->
<g id="node4" class="node">
<title>AppModule</title>
<polygon fill="#8dd3c7" stroke="black" points="226.66,-149.8 223.66,-153.8 202.66,-153.8 199.66,-149.8 143.34,-149.8 143.34,-113.8 226.66,-113.8 226.66,-149.8"/>
<text text-anchor="middle" x="185" y="-127.6" font-family="Times,serif" font-size="14.00">AppModule</text>
</g>
<!-- GoodsModule&#45;&gt;AppModule -->
<g id="edge1" class="edge">
<title>GoodsModule&#45;&gt;AppModule</title>
<path fill="none" stroke="black" d="M308,-84.91C308,-104.14 308,-131.8 308,-131.8 308,-131.8 236.99,-131.8 236.99,-131.8"/>
<polygon fill="black" stroke="black" points="236.99,-128.3 226.99,-131.8 236.99,-135.3 236.99,-128.3"/>
</g>
<!-- ResponseModule -->
<g id="node2" class="node">
<title>ResponseModule</title>
<polygon fill="#8dd3c7" stroke="black" points="241.7,-84.8 238.7,-88.8 217.7,-88.8 214.7,-84.8 128.3,-84.8 128.3,-48.8 241.7,-48.8 241.7,-84.8"/>
<text text-anchor="middle" x="185" y="-62.6" font-family="Times,serif" font-size="14.00">ResponseModule</text>
</g>
<!-- ResponseModule&#45;&gt;AppModule -->
<g id="edge2" class="edge">
<title>ResponseModule&#45;&gt;AppModule</title>
<path fill="none" stroke="black" d="M185,-84.91C185,-84.91 185,-103.79 185,-103.79"/>
<polygon fill="black" stroke="black" points="181.5,-103.79 185,-113.79 188.5,-103.79 181.5,-103.79"/>
</g>
<!-- UserModule -->
<g id="node3" class="node">
<title>UserModule</title>
<polygon fill="#8dd3c7" stroke="black" points="109.98,-84.8 106.98,-88.8 85.98,-88.8 82.98,-84.8 24.02,-84.8 24.02,-48.8 109.98,-48.8 109.98,-84.8"/>
<text text-anchor="middle" x="67" y="-62.6" font-family="Times,serif" font-size="14.00">UserModule</text>
</g>
<!-- UserModule&#45;&gt;AppModule -->
<g id="edge3" class="edge">
<title>UserModule&#45;&gt;AppModule</title>
<path fill="none" stroke="black" d="M67,-84.91C67,-104.14 67,-131.8 67,-131.8 67,-131.8 133.07,-131.8 133.07,-131.8"/>
<polygon fill="black" stroke="black" points="133.07,-135.3 143.07,-131.8 133.07,-128.3 133.07,-135.3"/>
</g>
</g>
</svg>
