<?xml version="1.0" standalone="no"?><!DOCTYPE svg PUBLIC "-//W3C//DTD SVG 1.1//EN" "http://www.w3.org/Graphics/SVG/1.1/DTD/svg11.dtd"><svg t="1648959333576" class="icon" viewBox="0 0 1024 1024" version="1.1" xmlns="http://www.w3.org/2000/svg" p-id="950" xmlns:xlink="http://www.w3.org/1999/xlink" width="200" height="200"><defs><style type="text/css">@font-face { font-family: feedback-iconfont; src: url("//at.alicdn.com/t/font_1031158_u69w8yhxdu.woff2?t=1630033759944") format("woff2"), url("//at.alicdn.com/t/font_1031158_u69w8yhxdu.woff?t=1630033759944") format("woff"), url("//at.alicdn.com/t/font_1031158_u69w8yhxdu.ttf?t=1630033759944") format("truetype"); }
</style></defs><path d="M923.428571 737.133714l-124.562285-63.414857a308.260571 308.260571 0 0 1-262.838857 147.419429c-170.276571 0-308.004571-137.728-308.004572-307.419429a307.785143 307.785143 0 0 1 308.004572-308.004571 306.834286 306.834286 0 0 1 251.428571 130.852571l122.843429-71.424A452.205714 452.205714 0 0 0 530.285714 58.843429C279.990857 58.843429 77.129143 261.705143 77.129143 512S279.990857 965.156571 530.285714 965.156571c162.304 0 312.576-86.857143 393.142857-227.986285z m-316.562285-226.852571l395.995428 201.142857C916.004571 901.12 741.705143 1024 530.285714 1024 247.442286 1024 18.285714 794.843429 18.285714 512S247.442286 0 530.285714 0c201.142857 0 366.848 110.848 460.580572 285.696z m293.12 1.718857H877.714286v91.428571H822.857143V402.285714h77.714286c63.414857 0 69.156571 109.714286-0.585143 109.714286z" fill="#FF6A00" p-id="951"></path></svg>