<?xml version="1.0" encoding="UTF-8" standalone="no"?>
<!DOCTYPE svg PUBLIC "-//W3C//DTD SVG 1.1//EN"
 "http://www.w3.org/Graphics/SVG/1.1/DTD/svg11.dtd">
<!-- Generated by graphviz version 2.47.3 (20210619.1520)
 -->
<!-- Title: dependencies Pages: 1 -->
<svg width="348pt" height="247pt"
 viewBox="0.00 0.00 348.00 246.80" xmlns="http://www.w3.org/2000/svg" xmlns:xlink="http://www.w3.org/1999/xlink">
<g id="graph0" class="graph" transform="scale(1 1) rotate(0) translate(4 242.8)">
<title>dependencies</title>
<polygon fill="white" stroke="transparent" points="-4,4 -4,-242.8 344,-242.8 344,4 -4,4"/>
<text text-anchor="middle" x="170" y="-8.2" font-family="sans-serif" font-size="14.00">dependencies</text>
<g id="clust1" class="cluster">
<title>cluster_ResponseModule</title>
<polygon fill="none" stroke="black" stroke-dasharray="1,5" points="8,-32.8 8,-230.8 332,-230.8 332,-32.8 8,-32.8"/>
</g>
<g id="clust4" class="cluster">
<title>cluster_ResponseModule_exports</title>
<polygon fill="none" stroke="black" points="38,-170.8 38,-222.8 279,-222.8 279,-170.8 38,-170.8"/>
</g>
<g id="clust6" class="cluster">
<title>cluster_ResponseModule_providers</title>
<polygon fill="none" stroke="black" points="16,-40.8 16,-92.8 324,-92.8 324,-40.8 16,-40.8"/>
</g>
<!-- ErrorService  -->
<g id="node1" class="node">
<title>ErrorService </title>
<polygon fill="#fb8072" stroke="black" points="270.51,-214.8 179.49,-214.8 179.49,-178.8 270.51,-178.8 270.51,-214.8"/>
<text text-anchor="middle" x="225" y="-192.6" font-family="Times,serif" font-size="14.00">ErrorService </text>
</g>
<!-- ResponseService  -->
<g id="node2" class="node">
<title>ResponseService </title>
<polygon fill="#fb8072" stroke="black" points="161.63,-214.8 46.37,-214.8 46.37,-178.8 161.63,-178.8 161.63,-214.8"/>
<text text-anchor="middle" x="104" y="-192.6" font-family="Times,serif" font-size="14.00">ResponseService </text>
</g>
<!-- ResponseModule -->
<g id="node3" class="node">
<title>ResponseModule</title>
<polygon fill="#8dd3c7" stroke="black" points="181.7,-149.8 178.7,-153.8 157.7,-153.8 154.7,-149.8 68.3,-149.8 68.3,-113.8 181.7,-113.8 181.7,-149.8"/>
<text text-anchor="middle" x="125" y="-127.6" font-family="Times,serif" font-size="14.00">ResponseModule</text>
</g>
<!-- ResponseModule&#45;&gt;ErrorService  -->
<g id="edge1" class="edge">
<title>ResponseModule&#45;&gt;ErrorService </title>
<path fill="none" stroke="black" stroke-dasharray="5,2" d="M181.81,-137.8C185.99,-137.8 188.62,-137.8 188.62,-137.8 188.62,-137.8 188.62,-168.78 188.62,-168.78"/>
<polygon fill="black" stroke="black" points="185.12,-168.78 188.62,-178.78 192.12,-168.78 185.12,-168.78"/>
</g>
<!-- ResponseModule&#45;&gt;ResponseService  -->
<g id="edge2" class="edge">
<title>ResponseModule&#45;&gt;ResponseService </title>
<path fill="none" stroke="black" stroke-dasharray="5,2" d="M114.98,-149.91C114.98,-149.91 114.98,-168.79 114.98,-168.79"/>
<polygon fill="black" stroke="black" points="111.48,-168.79 114.98,-178.79 118.48,-168.79 111.48,-168.79"/>
</g>
<!-- ErrorService -->
<g id="node4" class="node">
<title>ErrorService</title>
<ellipse fill="#fdb462" stroke="black" cx="256" cy="-66.8" rx="60.23" ry="18"/>
<text text-anchor="middle" x="256" y="-62.6" font-family="Times,serif" font-size="14.00">ErrorService</text>
</g>
<!-- ErrorService&#45;&gt;ResponseModule -->
<g id="edge3" class="edge">
<title>ErrorService&#45;&gt;ResponseModule</title>
<path fill="none" stroke="black" d="M233.07,-83.55C233.07,-100.99 233.07,-125.8 233.07,-125.8 233.07,-125.8 191.88,-125.8 191.88,-125.8"/>
<polygon fill="black" stroke="black" points="191.88,-122.3 181.88,-125.8 191.88,-129.3 191.88,-122.3"/>
</g>
<!-- ResponseService -->
<g id="node5" class="node">
<title>ResponseService</title>
<ellipse fill="#fdb462" stroke="black" cx="101" cy="-66.8" rx="77" ry="18"/>
<text text-anchor="middle" x="101" y="-62.6" font-family="Times,serif" font-size="14.00">ResponseService</text>
</g>
<!-- ResponseService&#45;&gt;ResponseModule -->
<g id="edge4" class="edge">
<title>ResponseService&#45;&gt;ResponseModule</title>
<path fill="none" stroke="black" d="M123.2,-84.22C123.2,-84.22 123.2,-103.42 123.2,-103.42"/>
<polygon fill="black" stroke="black" points="119.7,-103.42 123.2,-113.42 126.7,-103.42 119.7,-103.42"/>
</g>
</g>
</svg>
